# xmcd
#
# Track frame offsets:
#	150
#	13254
#	30659
#	52742
#	68412
#	83695
#	98150
#	115672
#	130693
#	146860
#	167893
#	186831
#	205248
#	222099
#	239260
#	256370
#	286227
#
# Disc length: 4763 seconds
#
# Revision: 1
# Processed by: cddbd v1.5.1PL2 Copyright (c) Steve Scherf et al.
# Submitted via: audiograbber 1.83.01
#
DISCID=e9129911
DTITLE=Various Artist - CMA Awards 1997
DYEAR=1997
DGENRE=Country
TTITLE0=Patty Loveless - She drew a broken heart
TTITLE1=Collin Raye - On the verge
TTITLE2=Deana Carter - Strawberry wine
TTITLE3=Vince Gill - You and you alone
TTITLE4=LeAnn Rimes - The light in your eyes
TTITLE5=Bryan White - Sittin' on go
TTITLE6=George Strait - One night at a time
TTITLE7=Pam Tillis - All the good ones are gone
TTITLE8=Brooks and Dunn - A man this lonely
TTITLE9=Clint Balck and Martina McBride - Still holding on
TTITLE10=Kathy Mattea - 455 rocket
TTITLE11=Alan Jackson - Who's cheatin' who
TTITLE12=Trisha Yearwood - Belive me baby (I lied)
TTITLE13=Tim McGraw and Faith Hill - It's your love
TTITLE14=Lee Ann Womack - Never again, again
TTITLE15=Diamond Rio - How your love makes me feel
TTITLE16=data - Data Track
EXTD=
EXTT0=
EXTT1=
EXTT2=
EXTT3=
EXTT4=
EXTT5=
EXTT6=
EXTT7=
EXTT8=
EXTT9=
EXTT10=
EXTT11=
EXTT12=
EXTT13=
EXTT14=
EXTT15=
EXTT16=
PLAYORDER=
